<svg width="143" height="34" viewBox="0 0 143 34" fill="none" xmlns="http://www.w3.org/2000/svg">
<g clip-path="url(#clip0)">
<path d="M56.0934 29.8537H50.0508V11.2744H56.3379C58.7798 11.2689 61.1262 12.2232 62.8711 13.9317C64.616 15.6401 65.6197 17.9659 65.6659 20.4076C65.6595 21.657 65.4066 22.8928 64.9217 24.0443C64.4368 25.1957 63.7295 26.2402 62.8402 27.1177C61.9509 27.9952 60.8972 28.6886 59.7395 29.1581C58.5817 29.6276 57.3427 29.864 56.0934 29.8537ZM54.0401 25.864H56.3379C57.0679 25.8673 57.7908 25.7196 58.4611 25.4303C59.1314 25.1411 59.7347 24.7164 60.2332 24.183C60.7317 23.6496 61.1146 23.0189 61.358 22.3305C61.6013 21.6421 61.6998 20.9109 61.6472 20.1827C61.5032 18.8233 60.855 17.5671 59.8306 16.6621C58.8061 15.757 57.4797 15.2687 56.113 15.2934H54.0401V25.864Z" fill="#00007C"/>
<path d="M140.087 11.3331H143.021V29.8536H140.518C140.346 29.8529 140.177 29.8118 140.024 29.7336C139.871 29.6555 139.739 29.5425 139.638 29.4038L132.001 19.0288V28.8073C132.001 29.0978 131.886 29.3763 131.68 29.5817C131.475 29.7871 131.196 29.9025 130.906 29.9025H127.973V11.3428H130.74C130.91 11.344 131.078 11.3842 131.231 11.4605C131.384 11.5368 131.517 11.6471 131.62 11.7829L138.982 21.8254V12.4282C138.982 12.2836 139.011 12.1404 139.067 12.0069C139.122 11.8733 139.204 11.7522 139.307 11.6503C139.409 11.5485 139.531 11.4681 139.665 11.4136C139.799 11.3591 139.943 11.3318 140.087 11.3331Z" fill="#00007C"/>
<path d="M115.976 30.4019C113.374 30.4019 110.878 29.3681 109.038 27.5278C107.198 25.6876 106.164 23.1916 106.164 20.5891C106.164 17.9866 107.198 15.4907 109.038 13.6505C110.878 11.8102 113.374 10.7764 115.976 10.7764C117.694 10.803 119.377 11.2675 120.865 12.1258L119.291 14.8051C119.158 15.0302 118.949 15.2002 118.701 15.2845C118.454 15.3688 118.184 15.3618 117.941 15.2647C116.898 14.858 115.757 14.7678 114.662 15.0055C113.568 15.2432 112.567 15.7981 111.786 16.6011C111.005 17.404 110.478 18.4193 110.27 19.5202C110.063 20.6211 110.184 21.7587 110.619 22.791C111.054 23.8233 111.784 24.7046 112.717 25.3246C113.65 25.9447 114.745 26.2761 115.865 26.2775C116.985 26.2789 118.081 25.9502 119.015 25.3324C119.95 24.7146 120.682 23.8352 121.119 22.804H117.042C116.754 22.804 116.478 22.6896 116.274 22.4861C116.071 22.2825 115.957 22.0064 115.957 21.7186V19.1175H125.187C125.278 19.1172 125.366 19.1512 125.433 19.2129C125.5 19.2745 125.541 19.3591 125.548 19.4499C125.548 19.6846 125.597 19.978 125.607 20.0758C125.989 23.6743 123.202 30.4019 115.976 30.4019Z" fill="#00007C"/>
<path d="M103.986 11.333H99.9961V29.8633H103.986V11.333Z" fill="#00007C"/>
<path d="M87.1287 16.6232C87.126 16.8474 87.1682 17.0698 87.2528 17.2775C87.3374 17.4851 87.4626 17.6737 87.6211 17.8322C87.7796 17.9907 87.9682 18.116 88.1758 18.2005C88.3834 18.2851 88.6058 18.3273 88.83 18.3247H91.7633C92.519 18.3151 93.2691 18.4544 93.9709 18.7347C94.6728 19.015 95.3125 19.4308 95.8536 19.9584C96.3948 20.4859 96.8267 21.1149 97.1248 21.8094C97.4229 22.5039 97.5812 23.2503 97.5909 24.006C97.6005 24.7618 97.4612 25.512 97.1809 26.2138C96.9006 26.9157 96.4849 27.5555 95.9574 28.0967C95.4298 28.6379 94.8009 29.0698 94.1064 29.3679C93.412 29.666 92.6656 29.8244 91.91 29.8341H82.6211V27.0178C82.6211 26.7274 82.7365 26.4488 82.9418 26.2434C83.1472 26.038 83.4258 25.9226 83.7162 25.9226H91.6166C92.1786 25.9073 92.7123 25.6726 93.1034 25.2687C93.4944 24.8648 93.7119 24.3238 93.7091 23.7616C93.7091 23.2066 93.4886 22.6743 93.0962 22.2819C92.7038 21.8894 92.1716 21.669 91.6166 21.669H88.9767C88.2961 21.6754 87.621 21.5477 86.9898 21.2932C86.3586 21.0387 85.7837 20.6623 85.2979 20.1856C84.8122 19.7089 84.4251 19.1411 84.1587 18.5148C83.8924 17.8885 83.752 17.2158 83.7455 16.5352C83.7391 15.8546 83.8668 15.1794 84.1213 14.5482C84.3758 13.917 84.7521 13.342 85.2288 12.8562C85.7055 12.3704 86.2732 11.9833 86.8994 11.7169C87.5257 11.4505 88.1983 11.3101 88.8789 11.3037H95.7233V13.8266C95.7207 14.1153 95.6042 14.3914 95.3991 14.5947C95.194 14.798 94.917 14.912 94.6282 14.912H88.8593C88.4045 14.9145 87.9686 15.095 87.6452 15.4148C87.3217 15.7346 87.1363 16.1684 87.1287 16.6232Z" fill="#00007C"/>
<path d="M81.9294 13.8168V11.3135H69.0912C68.8008 11.3135 68.5222 11.4289 68.3168 11.6343C68.1115 11.8396 67.9961 12.1182 67.9961 12.4087V14.9022H80.8343C81.1231 14.9022 81.4002 14.7882 81.6052 14.5849C81.8103 14.3816 81.9269 14.1056 81.9294 13.8168Z" fill="#00007C"/>
<path d="M85.2715 25.9228H72.0128V22.1385H77.8795V18.5791H68.0039V28.7586C68.0039 29.0464 68.1183 29.3225 68.3218 29.5261C68.5253 29.7296 68.8014 29.844 69.0892 29.844H86.2688V26.9104C86.2701 26.7795 86.2452 26.6497 86.1954 26.5286C86.1456 26.4076 86.0721 26.2977 85.979 26.2056C85.886 26.1135 85.7755 26.041 85.6539 25.9924C85.5324 25.9438 85.4023 25.9202 85.2715 25.9228Z" fill="#00007C"/>
<path d="M50.0427 0L33.0391 34H0L17.0036 0H50.0427Z" fill="#00007C"/>
<path d="M8.61328 29.6781L19.1048 8.67383L29.6062 29.6781H25.1377C24.9056 29.6782 24.6781 29.6131 24.4811 29.4904C24.2841 29.3677 24.1254 29.1922 24.0231 28.9839L19.1342 19.2053L14.2453 28.9839C14.1429 29.1922 13.9842 29.3677 13.7872 29.4904C13.5902 29.6131 13.3627 29.6782 13.1306 29.6781H8.61328Z" fill="white"/>
<path d="M33.1288 4.33203H28.7969V8.66393H33.1288V4.33203Z" fill="#FE6186"/>
<path d="M28.7967 8.66406H24.4648V12.996H28.7967V17.3181H33.1189V12.996V8.66406H28.7967Z" fill="white"/>
<path d="M37.4491 8.66406H33.1172V12.996H37.4491V8.66406Z" fill="#FE6186"/>
</g>
<defs>
<clipPath id="clip0">
<rect width="143" height="34" fill="white"/>
</clipPath>
</defs>
</svg>
